<?xml version="1.0" encoding="UTF-8" standalone="no"?>
<!-- Created with Inkscape (http://www.inkscape.org/) -->

<svg
   width="12.592609mm"
   height="12.592608mm"
   viewBox="0 0 12.592609 12.592608"
   version="1.1"
   id="svg5"
   inkscape:export-filename="..\web\icons\Icon-maskable-512.png"
   inkscape:export-xdpi="1031.73"
   inkscape:export-ydpi="1031.73"
   sodipodi:docname="naval_mine.svg"
   inkscape:version="1.2.1 (9c6d41e410, 2022-07-14)"
   xmlns:inkscape="http://www.inkscape.org/namespaces/inkscape"
   xmlns:sodipodi="http://sodipodi.sourceforge.net/DTD/sodipodi-0.dtd"
   xmlns="http://www.w3.org/2000/svg"
   xmlns:svg="http://www.w3.org/2000/svg">
  <sodipodi:namedview
     id="namedview7"
     pagecolor="#505050"
     bordercolor="#ffffff"
     borderopacity="1"
     inkscape:showpageshadow="0"
     inkscape:pageopacity="0"
     inkscape:pagecheckerboard="1"
     inkscape:deskcolor="#505050"
     inkscape:document-units="mm"
     showgrid="false"
     inkscape:zoom="14.481547"
     inkscape:cx="12.464138"
     inkscape:cy="23.340048"
     inkscape:window-width="1920"
     inkscape:window-height="1009"
     inkscape:window-x="1912"
     inkscape:window-y="-8"
     inkscape:window-maximized="1"
     inkscape:current-layer="layer1" />
  <defs
     id="defs2">
    <inkscape:path-effect
       effect="copy_rotate"
       starting_point="102.38795,-28.268343"
       origin="10,10"
       id="path-effect477"
       is_visible="true"
       lpeversion="1.2"
       lpesatellites=""
       method="normal"
       num_copies="8"
       starting_angle="22.5"
       rotation_angle="45"
       gap="-0.01"
       copies_to_360="true"
       mirror_copies="false"
       split_items="false"
       link_styles="false" />
  </defs>
  <g
     inkscape:label="Layer 1"
     inkscape:groupmode="layer"
     id="layer1"
     transform="translate(-3.7036959,-3.7036959)">
    <path
       id="path111"
       style="stroke-width:0.264583"
       class="UnoptimicedTransforms"
       d="M 9.9999524 5.0002576 C 7.2387698 5.0004261 5.0004261 7.2387698 5.0002576 9.9999524 C 5.0001407 12.761337 7.238568 14.999995 9.9999524 15.000164 C 12.761538 15.000281 15.000281 12.761538 15.000164 9.9999524 C 14.999995 7.238568 12.761337 5.0001407 9.9999524 5.0002576 z M 8.3757621 6.7505383 A 1.625 1.625 0 0 1 10.000469 8.3757621 A 1.625 1.625 0 0 1 8.3757621 10.000469 A 1.625 1.625 0 0 1 6.7505383 8.3757621 A 1.625 1.625 0 0 1 8.3757621 6.7505383 z " />
    <path
       id="path379"
       style="fill:#000000;stroke-width:0.431897"
       d="M 12.26183 3.6980115 C 11.987274 3.7058074 11.852553 3.8938652 11.852553 3.8938652 L 11.278427 5.2798271 L 12.433396 5.7578341 L 13.007521 4.3723889 C 13.007521 4.3723889 13.074335 3.9681554 12.583257 3.7636406 C 12.460488 3.7125122 12.353349 3.6954129 12.26183 3.6980115 z M 7.7385917 3.6985283 C 7.6470891 3.6958195 7.539612 3.712983 7.4166476 3.7636406 C 6.9247907 3.9662722 6.9923841 4.3723889 6.9923841 4.3723889 L 7.5659924 5.7583508 L 8.7209607 5.2798271 L 8.1468355 3.8938652 C 8.1468355 3.8938652 8.0130997 3.7066544 7.7385917 3.6985283 z M 15.694178 6.9892835 C 15.652956 6.9878896 15.627516 6.9923841 15.627516 6.9923841 L 14.241554 7.5659924 L 14.720078 8.7209607 L 16.10604 8.1468355 C 16.10604 8.1468355 16.438894 7.9085053 16.236264 7.4166476 C 16.08429 7.0477549 15.817845 6.9934652 15.694178 6.9892835 z M 4.3057263 6.9898002 C 4.1825669 6.9940067 3.9170267 7.0483397 3.7636406 7.4166476 C 3.5591272 7.9077253 3.8938652 8.1473523 3.8938652 8.1473523 L 5.2798271 8.7214775 L 5.7578341 7.5665092 L 4.3723889 6.9929008 C 4.3723889 6.9929008 4.3467795 6.9883981 4.3057263 6.9898002 z M 14.720595 11.278427 L 14.242071 12.433396 L 15.628033 13.007521 C 15.628033 13.007521 16.031749 13.074335 16.236264 12.583257 C 16.440778 12.09218 16.10604 11.852553 16.10604 11.852553 L 14.720595 11.278427 z M 5.2798271 11.278944 L 3.8938652 11.853069 C 3.8938652 11.853069 3.5610105 12.0914 3.7636406 12.583257 C 3.9662722 13.075117 4.3723889 13.008038 4.3723889 13.008038 L 5.7583508 12.433912 L 5.2798271 11.278944 z M 12.433912 14.241554 L 11.278944 14.720078 L 11.853069 16.10604 C 11.853069 16.10604 12.0914 16.438894 12.583257 16.236264 C 13.075117 16.033632 13.008038 15.627516 13.008038 15.627516 L 12.433912 14.241554 z M 7.5665092 14.242071 L 6.9929008 15.628033 C 6.9929008 15.628033 6.9255705 16.031749 7.4166476 16.236264 C 7.9077253 16.440778 8.1473523 16.10604 8.1473523 16.10604 L 8.7214775 14.720595 L 7.5665092 14.242071 z " />
  </g>
</svg>
